<svg xmlns="http://www.w3.org/2000/svg" viewBox="0 0 500 300"><defs><style>.cls-1,.cls-2,.cls-9{fill:#313133;}.cls-2{font-size:13.9px;font-family:Raleway-Medium, Raleway;font-weight:500;letter-spacing:0.03em;}.cls-3{letter-spacing:0.02em;}.cls-4{letter-spacing:0.01em;}.cls-5{letter-spacing:0.03em;}.cls-6{letter-spacing:0.01em;}.cls-7{letter-spacing:0.01em;}.cls-8{letter-spacing:0.01em;}.cls-10,.cls-9{stroke:#313133;}.cls-9{stroke-linecap:round;stroke-linejoin:round;stroke-width:2px;}.cls-10{fill:none;stroke-miterlimit:10;stroke-width:3px;}</style></defs><g id="grand_logo" data-name="grand logo"><g id="logo-noir-cercle-noir"><g id="lettre_M" data-name="lettre M"><path class="cls-1" d="M248.75,138.12l-.25-.07a.58.58,0,0,0-.7.38l-4.94,14.29a.44.44,0,0,1-.76.14c-4.86-6.36-9.6-28.16-17.36-37.41-10.9-13-19.83-9.46-40.71-10.15a.44.44,0,0,0-.46.44v1a.44.44,0,0,0,.41.44c1.66.12,7.94.61,10.44,1.63C204.78,113,220.3,157.1,226.74,169c5.86,10.81,9,8.39,9,8.39l2.75-8.23,10.67-30.22A.59.59,0,0,0,248.75,138.12Z"/><path class="cls-1" d="M259.87,104.9h32.05a.44.44,0,0,1,.44.45v.37a.44.44,0,0,1-.44.45h-9.1a.45.45,0,0,0-.44.45v69.26a.45.45,0,0,0,.44.45h8.86a.44.44,0,0,1,.44.44V177a.45.45,0,0,1-.44.45H249.26a.45.45,0,0,1-.44-.45v-.63a.45.45,0,0,1,.44-.45h9.85a.44.44,0,0,0,.44-.44l-.12-70.15A.44.44,0,0,1,259.87,104.9Z"/><path class="cls-1" d="M201.45,167.5l0,4.93s0,3.68,3.45,3.73c1.49,0,6.13-.07,7.65,0a.44.44,0,0,1,.44.43v.21a.44.44,0,0,1-.43.47l-23.44.08a.45.45,0,0,1-.44-.45v-.12a.45.45,0,0,1,.44-.45l7-.12s4,0,4.15-3.65c.09-1.95.07-4,.08-5a.44.44,0,0,1,.44-.44H201A.44.44,0,0,1,201.45,167.5Z"/></g><path id="slash" class="cls-1" d="M326,100.65l7.83.16a.46.46,0,0,1,.43.55l-17.93,80.11c-.05.2-.67.35-.88.35l-7.28-.16a.44.44,0,0,1-.42-.55L325.55,101A.46.46,0,0,1,326,100.65Z"/><path id="balise_fermante" data-name="balise fermante" class="cls-1" d="M337.62,115.56l-.15,11.24a.44.44,0,0,0,.28.42l34.61,13.22a.45.45,0,0,1,0,.83l-34.3,14.53a.46.46,0,0,0-.27.42v10.69a.44.44,0,0,0,.61.41l47.5-18.57a.45.45,0,0,0,.27-.41V135.2a.45.45,0,0,0-.27-.41l-47.67-19.64A.45.45,0,0,0,337.62,115.56Z"/><path id="balise_ouvrante" data-name="balise ouvrante" class="cls-1" d="M162.91,115.56l.16,11.24a.45.45,0,0,1-.29.42l-34.6,13.22a.45.45,0,0,0,0,.83l34.3,14.53a.46.46,0,0,1,.27.42v10.69a.45.45,0,0,1-.62.41l-47.5-18.57a.44.44,0,0,1-.26-.41V135.2a.44.44,0,0,1,.26-.41l47.68-19.64A.44.44,0,0,1,162.91,115.56Z"/><text class="cls-2" transform="translate(190.16 209.19) scale(0.98 1)">D<tspan class="cls-3" x="10.41" y="0">e</tspan><tspan class="cls-4" x="18.89" y="0">v</tspan><tspan class="cls-5" x="26.59" y="0">eloppeu</tspan><tspan class="cls-6" x="84.2" y="0">r</tspan><tspan class="cls-7" x="89.39" y="0"> </tspan><tspan class="cls-8" x="92.97" y="0">w</tspan><tspan x="104.59" y="0">eb</tspan></text><line class="cls-9" x1="318.21" y1="205.91" x2="345.91" y2="205.91"/><line class="cls-9" x1="155.02" y1="205.91" x2="182.72" y2="205.91"/><ellipse id="contour" class="cls-10" cx="250" cy="150" rx="140.63" ry="143.26"/></g></g></svg>